Screen Shots
 
http://www.postimg.com/image/54000/photo-53932.jpg
 
http://www.postimg.com/image/54000/photo-53933.jpg
 
http://www.postimg.com/image/54000/photo-53934.jpg
 
http://www.postimg.com/image/54000/photo-53935.jpg
 
http://www.postimg.com/image/54000/photo-53936.jpg
 
http://www.postimg.com/image/54000/photo-53937.jpg



Media INfo:-

General

Format : AVI
Format/Info : Audio Video Interleave
File size : 651 MiB
Duration : 2h 19mn
Overall bit rate : 652 Kbps
Writing application : Lavf52.39.1

Video
ID : 0
Format : xvid
Codec ID : xvid
Duration : 2h 19mn
Bit rate : 574 Kbps
Width : 352 pixels
Height : 240 pixels
Display aspect ratio : 3:2
Frame rate : 29.970 fps
Standard : NTSC
Bits/(Pixel*Frame) : 0.227
Stream size : 573 MiB (88%)

Audio
ID : 1
Format : MPEG Audio
Format version : Version 1
Format profile : Layer 3
Mode : Joint stereo
Mode extension : MS Stereo
Codec ID : 55
Codec ID/Hint : MP3
Duration : 2h 19mn
Bit rate mode : Constant
Bit rate : 64.0 Kbps
Channel(s) : 2 channels
Sampling rate : 44.1 KHz
Compression mode : Lossy
Stream size : 63.9 MiB (10%)
Alignment : Aligned on interleaves
Interleave, duration : 26 ms (0.78 video frame)
